<?xml version="1.0" encoding="utf-8"?>
<!-- Generator: Adobe Illustrator 21.1.0, SVG Export Plug-In . SVG Version: 6.00 Build 0)  -->
<svg version="1.1" id="Capa_1" xmlns="http://www.w3.org/2000/svg" xmlns:xlink="http://www.w3.org/1999/xlink" x="0px" y="0px"
	 viewBox="0 0 728.3 173" enable-background="new 0 0 728.3 173" xml:space="preserve">
<g>
	<path fill="#6C625A" d="M452.8,75.5c10.6-0.3,19.7,3.1,27.1,10.8c4.4,4.6,7,10.2,8.4,16.2c2.1,9.4,1.3,18.7-2.8,27.5
		c-4.8,10.5-13.4,16.5-24.6,18.8c-8,1.7-15.8,1.3-23.5-1.6c-7.4-2.9-12.9-7.7-16.9-14.5c-4.1-7.2-5.6-15-4.8-23.1
		c1.2-12.9,6.9-23.2,18.4-29.7C438.5,77.4,444.9,75.1,452.8,75.5z M470.9,112.8c0.2-6.7-1.1-12.8-5.1-18.2
		c-6.4-8.7-20.1-8.7-26.8-0.4c-6.8,8.5-7.3,26.3-0.9,35.5c6.7,9.7,21.3,10.1,28.1,0.4C469.9,124.9,471.1,119,470.9,112.8z"/>
	<path fill="#6C625A" d="M588.6,75.3c7.6,0,14.6,1.8,20.9,6.1c7.2,4.9,11.9,11.8,14,20.3c2.4,9.8,1.7,19.5-2.7,28.7
		c-4.8,10-12.9,16-23.6,18.5c-10.4,2.3-20.5,1.4-29.7-4.2c-7.8-4.7-12.7-11.8-15-20.6c-2.2-8-2-16.1,0.6-24
		c3.5-10.2,10.2-17.8,20.4-21.8c2.1-0.8,4.3-1.7,6.5-2.1C582.7,75.6,585.7,75.5,588.6,75.3z M606.5,114.8c0.1-7.3-0.8-12-2.9-16.5
		c-2.7-5.6-7-9.5-13.4-10.2c-7-0.8-12.9,1.4-16.6,7.6c-6.4,10.8-6.7,22.1-0.6,33c6.8,12.1,23.5,11.5,30.2-0.7
		C605.7,123,606.4,117.8,606.5,114.8z"/>
	<path fill="#6C625A" d="M216,76.7c15.6,0,31,0,46.5,0c0,4.3,0,8.5,0,12.9c-10.3,0-20.4,0-30.7,0c0,5.3,0,10.3,0,15.6
		c9.6,0,19.2,0,28.9,0c0,4.4,0,8.6,0,13.1c-9.7,0-19.3,0-29,0c0,6.1,0,11.8,0,17.8c10.8,0,21.5,0,32.3,0c0,4.2,0,8.3,0,12.5
		c-16,0-32,0-48.1,0C216,124.7,216,100.8,216,76.7z"/>
	<path fill="#6C625A" d="M370.6,122.7c0,8.8,0,17.2,0,25.9c-5.6,0-11,0-16.7,0c0-0.7-0.1-1.5-0.1-2.2c0-22.1,0-44.2,0-66.4
		c0-1.9,0.5-2.8,2.5-2.9c8.1-0.3,16.2-0.9,24.3-1c8,0,15.8,1.7,22,7.2c3.3,2.9,5.4,6.8,6.1,11.2c1.1,6.7-0.1,12.8-4.3,18.3
		c-2.6,3.4-6.1,5.5-9.9,7.1c-6.3,2.7-13,3.3-19.8,3.2C373.4,123.2,372.2,122.9,370.6,122.7z M370.6,99.5c0,3.1-0.1,6.2,0.1,9.3
		c0,0.6,0.7,1.8,1.2,1.8c4.5,0.4,9.1,0.6,13.4-1.3c4.5-2,7-6.2,6.6-11.4c-0.4-4.7-3.3-8.2-8.4-9.1c-3.7-0.6-7.6-0.4-11.4-0.3
		c-0.5,0-1.4,1.1-1.4,1.8C370.5,93.4,370.6,96.4,370.6,99.5z"/>
	<path fill="#6C625A" d="M677.5,91.7c-6.2-3-12.7-3.6-19.2-3c-2.6,0.2-5.3,1-6.8,3.6c-1.4,2.3-1.5,6,0.6,7.6c2.7,2,5.8,3.4,8.8,4.9
		c5.2,2.6,10.8,4.6,15.7,7.7c9.2,5.7,10.2,18.7,4.1,26.8c-5.1,6.7-12.2,9-20.1,10.2c-8.1,1.2-15.9,0-23.6-2.3
		c-1.1-0.3-2.3-0.6-3.3-1.2c-0.5-0.3-0.8-1.4-0.6-1.9c0.7-3,1.8-5.9,2.3-8.9c0.4-2.2,1.3-2.2,2.9-1.5c6.2,2.7,12.8,3.6,19.5,3.2
		c2.9-0.2,5.5-1,7.8-3c2.8-2.4,3-8.5-1.1-10.9c-3-1.8-6.3-3.2-9.6-4.4c-5.9-2.2-11.6-4.6-16.1-9.1c-6.6-6.7-6.9-16.4-1.2-23.6
		c5.1-6.3,11.9-8.7,19.5-9.7c7.4-1,14.6,0,21.7,2.2c2,0.6,2.9,1.4,2,3.7C679.4,85,678.6,88.3,677.5,91.7z"/>
	<path fill="#B1182E" d="M89.5,120.4c0.2-21.8,16.2-40.3,37.8-43.4c14.5-2.1,27.1,2.1,37.7,12.2c2,1.9,2.7,4.3,1.9,7
		c-0.8,2.7-2.7,4.2-5.5,4.8c-2.9,0.6-5-1.2-7-2.9c-9.2-8-19.7-10.1-31-6c-11.7,4.3-18.5,13-19.8,25.7c-1,9.2,1.9,17.1,8,23.9
		c2,2.2,3.2,4.7,2.1,7.9c-1,3.1-3.6,4.4-6.2,4.9c-1.5,0.3-3.8-1.2-5-2.5c-6.3-6.6-10.7-14.4-12.2-23.6
		C89.9,125.7,89.8,123,89.5,120.4z"/>
	<path fill="#B1182E" d="M84.2,120.8c0,11.9-4.3,22.1-12.4,30.7c-3.3,3.5-6.4,3.7-9.8,0.8c-3.3-2.8-3.3-6.7-0.2-10.1
		c10.7-11.6,11.6-27.9,2.2-40.4C57.1,92.6,43.9,88.1,32.6,91c-5.6,1.4-10.3,4.4-14.6,8.1c-2.3,2-5,2.6-7.7,0.9
		c-2.6-1.5-4.5-3.6-3.8-6.9c0.2-1.2,1.1-2.4,1.9-3.4c13.5-14.5,37.2-17.5,54-7.3C74.7,90.1,81.6,101,83.9,115
		C84.2,116.9,84.1,118.9,84.2,120.8z"/>
	<path fill="#B1182E" d="M86,83.4c-23.5,0-42.8-18.3-44.1-41.9c-0.3-4.8,0.8-7.1,4.1-8.5c4.2-1.8,8.8,0.9,9.3,5.4
		c0.3,2.7,0.5,5.4,1.1,8c3,12.6,14.2,22.3,27.4,23.1c9.2,0.6,17.2-2.2,23.7-8.5c5.5-5.4,8.7-12.1,9-20c0.2-3.5,0.8-6.7,4.6-8.2
		c4.5-1.8,9.4,1.5,9.3,6.4c-0.3,13.6-5.6,24.9-15.9,33.7C106.4,80,96.8,83.5,86,83.4z"/>
	<path fill="#6C625A" d="M549.1,76.7c0,4.1,0.1,8-0.1,12c0,0.5-1.4,1.3-2.2,1.3c-5.3,0.1-10.5,0.1-15.8,0.1c-0.9,0-1.7,0-2.9,0
		c0,19.5,0,38.9,0,58.4c-5.6,0-10.9,0-16.4,0c0-19.3,0-38.7,0-58.4c-7,0-13.7,0-20.6,0c0-4.7,0-9,0-13.5
		C510.4,76.7,529.6,76.7,549.1,76.7z"/>
	<path fill="#6C625A" d="M322.7,135.6c0,4.6,0,8.7,0,13c-15.9,0-31.6,0-47.5,0c0-24,0-47.9,0-72c5.4,0,10.6,0,15.8,0.1
		c0.5,0,1.2,0.9,1.4,1.5c0.2,0.9,0.1,1.9,0.1,2.9c0,17.2,0,34.3,0,51.5c0,0.9,0,1.9,0,3.1C302.6,135.6,312.5,135.6,322.7,135.6z"/>
	<path fill="#6C625A" d="M695.8,76.1c5,0,9.9,0,14.8,0c0.5,0,1.1,0,1.8,0c0,24.3,0,48.3,0,72.6c-5.5,0-10.9,0-16.5,0
		C695.8,124.5,695.8,100.5,695.8,76.1z"/>
	<path fill="#B1182E" d="M85,18.6c11.3,1,21.2,9.1,21.2,21.7c0,11.5-9.8,21.2-21.3,21.1c-11.5-0.1-21.3-9.7-21.1-21.2
		C64,27.5,74,19.7,85,18.6z M85.2,30c-5.8,0-10.4,4.4-10.4,10.2c0,5.6,4.5,10.2,10.1,10.3c5.7,0.1,10.4-4.5,10.4-10.2
		C95.4,34.6,90.8,30.1,85.2,30z"/>
	<path fill="#B1182E" d="M134,140.3c-11.8,0-21.3-9.2-21.3-20.9c0-11.9,9.3-21.1,21.1-21.3c10.5-0.2,21.3,9,21.3,21
		C155.1,130.8,145.6,140.3,134,140.3z M133.6,129.3c5.9,0,10.5-4.4,10.5-10.1c0-5.6-4.6-10.1-10.3-10.1c-5.8,0-10.2,4.3-10.2,10.1
		C123.7,124.9,128.1,129.3,133.6,129.3z"/>
	<path fill="#B1182E" d="M62.5,120.6c0,11.8-9.2,21.2-20.9,21.2c-11.9,0-21.3-9.2-21.4-21c0-11.3,8.7-21,21-21.2
		C53.2,99.3,62.6,109.3,62.5,120.6z M41.4,130.8c5.9,0,10.2-4.3,10.1-10.3c0-5.5-4.5-9.9-10.1-10c-5.5-0.1-10.3,4.6-10.3,10.1
		C31.2,126.4,35.5,130.8,41.4,130.8z"/>
	<path fill="#6C625A" d="M397.1,57.1c-8.4,0.4-17-7.8-16.8-16.7c0.2-9.1,7.6-16.6,16.8-16.8c8.8-0.2,16.9,7.7,17,17
		C414.1,49.4,405.6,57.5,397.1,57.1z M383.6,40.3c0,7.8,5.9,13.9,13.6,13.9c7.5,0,13.5-6.1,13.5-13.8c0-7.8-5.8-13.7-13.5-13.7
		C389.4,26.7,383.6,32.5,383.6,40.3z"/>
	<path fill="#6C625A" d="M304.3,30.4c-0.7,0.6-1.3,1.2-1.8,1.7c-7.5-6.3-14.1-7.3-19.6-3.2c-6.4,4.9-6.9,12.5-4.4,17.7
		c2.9,5.8,9.8,9,15.9,7.1c4.3-1.3,8.7-5.2,8-10.1c-3.1,0-6.2,0-9.4,0c0-1.2,0-2.1,0-3.2c4.3,0,8.5,0,12.6,0
		c1.5,7.6-3.8,14.2-10.9,16.1c-9.3,2.6-18-3.6-20.4-12.7C272,34.5,280,25,288.2,23.9C294.8,23,299.5,24.7,304.3,30.4z"/>
	<path fill="#6C625A" d="M370.6,56.3c-2.5,0.7-3.7,0-4.9-1.9c-2.4-3.8-5.1-7.4-7.7-11.1c-0.4-0.6-1.1-1-1.6-1.5
		c-0.2,0.1-0.4,0.3-0.6,0.4c0,4.7,0,9.3,0,14.2c-1.1,0-2,0-3.1,0c0-10.7,0-21.4,0-32.3c4.6-0.2,8.9-0.2,12.9,2.3
		c4.6,2.8,4.3,11.2-0.5,13.9c-0.2,0.1-0.4,0.2-0.6,0.3c-3.9,2-3.9,2.3-1,5.9C366,49.7,368.2,52.9,370.6,56.3z M356.1,39.3
		c2.2-0.3,4.1-0.1,5.5-0.8c1.4-0.7,2.9-2,3.5-3.5c1-2,0.7-4.7-1.2-5.9c-2-1.2-4.6-1.3-7-1.8c-0.2,0-0.8,0.7-0.8,1.1
		C356.1,31.9,356.1,35.4,356.1,39.3z"/>
	<path fill="#6C625A" d="M317.3,24.1c1.1,0,1.8,0,2.8,0c0,4.2-0.1,8.2,0,12.3c0.1,3.6,0.2,7.3,0.5,10.9c0.4,5,5.4,8.2,10.2,6.7
		c4.4-1.4,6-3.5,6-8.1c0-6.5,0-12.9,0-19.4c0-2.6,0.3-2.8,3.3-2.2c0,1.4,0,2.8,0,4.2c0,5.7,0,11.3,0,17c0,5.1-2.4,8.7-6.9,10.6
		c-4.1,1.8-9.1,1.2-12.7-2.4c-2.2-2.3-3.3-4.7-3.3-7.8C317.4,38.7,317.3,31.5,317.3,24.1z"/>
	<path fill="#6C625A" d="M247.4,56.4c0-10.8,0-21.4,0-32.3c5.4,0,10.7,0,16.1,0c0,0.9,0,1.6,0,2.6c-4.4,0-8.8,0-13.4,0
		c0,3.2,0,6.1,0,9c0,1.7,1.4,1.7,2.6,1.7c3.4,0,6.8,0,10.3,0c0,1,0,1.7,0,2.7c-4.2,0-8.4,0-12.7,0c0,4.6,0,8.9,0,13.6
		c4.4,0,8.7,0,13.2,0c0,1,0,1.8,0,2.7C258.2,56.4,252.9,56.4,247.4,56.4z"/>
	<path fill="#6C625A" d="M423.8,49.2c0.7-0.3,1.4-0.5,2.3-0.8c0.5,0.9,1,1.8,1.5,2.7c1.8,3.2,6.3,4.4,9.5,2.5
		c3.4-1.9,4.7-6.4,2.2-9.4c-1.5-1.8-4-2.6-6.1-3.9c-1.9-1.2-3.9-2.3-5.8-3.6c-2.5-1.8-2.7-4.5-1.9-7.1c0.9-3,3.1-5,6.2-5.7
		c3.5-0.8,6.7,0,9.2,2.8c0.4,0.5,0.2,1.5,0.3,2.2c-0.7-0.1-1.8,0.1-2.2-0.3c-1.9-2.3-4.3-2.1-6.8-1.9c-2.1,0.2-3.8,2.1-4,4.7
		c-0.2,2.3,1.2,3.9,3.1,4.9c2.6,1.4,5.3,2.5,7.9,3.8c5.9,2.9,5.4,11.3,0.4,15c-5.6,4.2-13.8,1.5-15.8-5.2
		C423.7,49.7,423.8,49.5,423.8,49.2z"/>
	<path fill="#6C625A" d="M215.9,49.3c1.6-1.1,2.8-1.5,3.5,1.1c0.7,2.5,3.9,4.2,6.7,4c3.1-0.2,5.6-2.3,6.5-5.2c0.7-2.5-0.4-5.3-3-6.8
		c-2.8-1.6-5.8-2.9-8.5-4.6c-5.1-3.2-4.8-9.9,0.4-12.8c5.1-2.8,8.7-1.9,12.8,3.3c-0.8,0.4-1.5,0.8-2.2,1.2
		c-2.3-4.1-8.1-3.9-10.2-1.5c-2.1,2.4-1.6,6.3,1.3,7.9c2.7,1.4,5.5,2.8,8.2,4.2c3,1.6,4.8,4.1,4.4,7.4c-0.5,4.4-2.8,7.9-7.5,8.9
		C222.3,58,218.4,55.7,215.9,49.3z"/>
	<path fill="#6C625A" d="M696.6,71.8c2.8-4.1,5.4-7.8,8-11.4c0.4-0.5,1-1.1,1.6-1.1c5.1-0.1,10.2,0,15.9,0c-1.9,1.9-3.3,3.4-4.8,4.8
		c-2.2,2.1-4.5,4.3-6.8,6.2c-0.9,0.7-2.1,1.3-3.3,1.4C703.8,71.9,700.5,71.8,696.6,71.8z"/>
</g>
</svg>
